<?xml version="1.0" encoding="UTF-8" standalone="no"?>
<!DOCTYPE svg PUBLIC "-//W3C//DTD SVG 1.1//EN"
 "http://www.w3.org/Graphics/SVG/1.1/DTD/svg11.dtd">
<!-- Generated by graphviz version 2.38.0 (20140413.2041)
 -->
<!-- Title: %3 Pages: 1 -->
<svg width="613pt" height="573pt"
 viewBox="0.00 0.00 613.08 572.93" xmlns="http://www.w3.org/2000/svg" xmlns:xlink="http://www.w3.org/1999/xlink">
<g id="graph0" class="graph" transform="scale(1 1) rotate(0) translate(4 568.926)">
<title>%3</title>
<polygon fill="white" stroke="none" points="-4,4 -4,-568.926 609.077,-568.926 609.077,4 -4,4"/>
<!-- &#45;1 -->
<g id="node1" class="node"><title>&#45;1</title>
<polygon fill="lightgray" stroke="black" points="184.577,-564.926 160.577,-564.926 160.577,-546.926 184.577,-546.926 184.577,-564.926"/>
<text text-anchor="middle" x="172.577" y="-553.726" font-family="Times New Roman,serif" font-size="9.00">&#45;1</text>
</g>
<!-- 0 -->
<g id="node14" class="node"><title>0</title>
<ellipse fill="lightblue" stroke="black" cx="236.577" cy="-209.886" rx="14.7" ry="14.7"/>
<text text-anchor="middle" x="236.577" y="-207.686" font-family="Times New Roman,serif" font-size="9.00">0</text>
</g>
<!-- &#45;1&#45;&gt;0 -->
<g id="edge15" class="edge"><title>&#45;1&#45;&gt;0</title>
<path fill="none" stroke="green" stroke-width="0.158531" d="M178.137,-546.905C183.75,-538.385 192.197,-524.324 196.577,-510.926 228.903,-412.038 235.153,-286.659 236.326,-234.902"/>
<polygon fill="green" stroke="green" stroke-width="0.158531" points="239.828,-234.799 236.51,-224.737 232.829,-234.672 239.828,-234.799"/>
</g>
<!-- 1 -->
<g id="node15" class="node"><title>1</title>
<ellipse fill="lightblue" stroke="black" cx="130.577" cy="-483.349" rx="14.7" ry="14.7"/>
<text text-anchor="middle" x="130.577" y="-481.149" font-family="Times New Roman,serif" font-size="9.00">1</text>
</g>
<!-- &#45;1&#45;&gt;1 -->
<g id="edge1" class="edge"><title>&#45;1&#45;&gt;1</title>
<path fill="none" stroke="green" stroke-width="1.24857" d="M167.759,-546.83C161.807,-536.828 151.453,-519.43 143.181,-505.528"/>
<polygon fill="green" stroke="green" stroke-width="1.24857" points="145.988,-503.401 137.866,-496.597 139.972,-506.98 145.988,-503.401"/>
</g>
<!-- 12322 -->
<g id="node19" class="node"><title>12322</title>
<ellipse fill="white" stroke="black" cx="27.5772" cy="-483.349" rx="27.6545" ry="27.6545"/>
<text text-anchor="middle" x="27.5772" y="-481.149" font-family="Times New Roman,serif" font-size="9.00">12322</text>
</g>
<!-- &#45;1&#45;&gt;12322 -->
<g id="edge5" class="edge"><title>&#45;1&#45;&gt;12322</title>
<path fill="none" stroke="green" stroke-width="0.35775" d="M160.491,-551.051C140.067,-544.276 97.7139,-529.24 64.5772,-510.926 62.2755,-509.654 59.9476,-508.264 57.6391,-506.808"/>
<polygon fill="green" stroke="green" stroke-width="0.35775" points="59.1848,-503.631 48.9277,-500.977 55.2911,-509.448 59.1848,-503.631"/>
</g>
<!-- 11253 -->
<g id="node25" class="node"><title>11253</title>
<ellipse fill="white" stroke="black" cx="439.577" cy="-483.349" rx="27.6545" ry="27.6545"/>
<text text-anchor="middle" x="439.577" y="-481.149" font-family="Times New Roman,serif" font-size="9.00">11253</text>
</g>
<!-- &#45;1&#45;&gt;11253 -->
<g id="edge2" class="edge"><title>&#45;1&#45;&gt;11253</title>
<path fill="none" stroke="green" stroke-width="0.301056" d="M184.589,-554.44C219.619,-552.65 324.141,-544.641 402.577,-510.926 405.079,-509.85 407.578,-508.583 410.029,-507.196"/>
<polygon fill="green" stroke="green" stroke-width="0.301056" points="412.031,-510.07 418.614,-501.769 408.291,-504.153 412.031,-510.07"/>
</g>
<!-- &#45;2 -->
<g id="node2" class="node"><title>&#45;2</title>
<polygon fill="lightgray" stroke="black" points="515.577,-564.926 491.577,-564.926 491.577,-546.926 515.577,-546.926 515.577,-564.926"/>
<text text-anchor="middle" x="503.577" y="-553.726" font-family="Times New Roman,serif" font-size="9.00">&#45;2</text>
</g>
<!-- &#45;3 -->
<g id="node3" class="node"><title>&#45;3</title>
<polygon fill="lightgray" stroke="black" points="473.577,-564.926 449.577,-564.926 449.577,-546.926 473.577,-546.926 473.577,-564.926"/>
<text text-anchor="middle" x="461.577" y="-553.726" font-family="Times New Roman,serif" font-size="9.00">&#45;3</text>
</g>
<!-- &#45;3&#45;&gt;11253 -->
<g id="edge6" class="edge"><title>&#45;3&#45;&gt;11253</title>
<path fill="none" stroke="green" stroke-width="0.347717" d="M459.053,-546.83C456.932,-540.025 453.744,-529.797 450.558,-519.577"/>
<polygon fill="green" stroke="green" stroke-width="0.347717" points="453.857,-518.396 447.539,-509.891 447.174,-520.48 453.857,-518.396"/>
</g>
<!-- &#45;4 -->
<g id="node4" class="node"><title>&#45;4</title>
<polygon fill="lightgray" stroke="black" points="468.577,-127.731 444.577,-127.731 444.577,-109.731 468.577,-109.731 468.577,-127.731"/>
<text text-anchor="middle" x="456.577" y="-116.531" font-family="Times New Roman,serif" font-size="9.00">&#45;4</text>
</g>
<!-- 12699 -->
<g id="node27" class="node"><title>12699</title>
<ellipse fill="white" stroke="black" cx="456.577" cy="-27.5772" rx="27.6545" ry="27.6545"/>
<text text-anchor="middle" x="456.577" y="-25.3772" font-family="Times New Roman,serif" font-size="9.00">12699</text>
</g>
<!-- &#45;4&#45;&gt;12699 -->
<g id="edge25" class="edge"><title>&#45;4&#45;&gt;12699</title>
<path fill="none" stroke="green" stroke-width="0.398244" d="M456.577,-109.504C456.577,-99.5319 456.577,-82.051 456.577,-65.8819"/>
<polygon fill="green" stroke="green" stroke-width="0.398244" points="460.077,-65.538 456.577,-55.5381 453.077,-65.5381 460.077,-65.538"/>
</g>
<!-- &#45;5 -->
<g id="node5" class="node"><title>&#45;5</title>
<polygon fill="lightgray" stroke="black" points="557.577,-564.926 533.577,-564.926 533.577,-546.926 557.577,-546.926 557.577,-564.926"/>
<text text-anchor="middle" x="545.577" y="-553.726" font-family="Times New Roman,serif" font-size="9.00">&#45;5</text>
</g>
<!-- &#45;6 -->
<g id="node6" class="node"><title>&#45;6</title>
<polygon fill="lightgray" stroke="black" points="97.5772,-492.349 73.5772,-492.349 73.5772,-474.349 97.5772,-474.349 97.5772,-492.349"/>
<text text-anchor="middle" x="85.5772" y="-481.149" font-family="Times New Roman,serif" font-size="9.00">&#45;6</text>
</g>
<!-- 12424 -->
<g id="node21" class="node"><title>12424</title>
<ellipse fill="white" stroke="black" cx="119.577" cy="-392.194" rx="27.6545" ry="27.6545"/>
<text text-anchor="middle" x="119.577" y="-389.994" font-family="Times New Roman,serif" font-size="9.00">12424</text>
</g>
<!-- &#45;6&#45;&gt;12424 -->
<g id="edge13" class="edge"><title>&#45;6&#45;&gt;12424</title>
<path fill="none" stroke="green" stroke-width="0.232624" stroke-dasharray="1,5" d="M88.7149,-474.121C92.7276,-463.599 99.9288,-444.716 106.366,-427.836"/>
<polygon fill="green" stroke="green" stroke-width="0.232624" points="109.745,-428.798 110.038,-418.207 103.205,-426.303 109.745,-428.798"/>
</g>
<!-- &#45;7 -->
<g id="node7" class="node"><title>&#45;7</title>
<polygon fill="lightgray" stroke="black" points="187.577,-492.349 163.577,-492.349 163.577,-474.349 187.577,-474.349 187.577,-492.349"/>
<text text-anchor="middle" x="175.577" y="-481.149" font-family="Times New Roman,serif" font-size="9.00">&#45;7</text>
</g>
<!-- 11523 -->
<g id="node17" class="node"><title>11523</title>
<ellipse fill="white" stroke="black" cx="159.577" cy="-301.04" rx="27.6545" ry="27.6545"/>
<text text-anchor="middle" x="159.577" y="-298.84" font-family="Times New Roman,serif" font-size="9.00">11523</text>
</g>
<!-- &#45;7&#45;&gt;11523 -->
<g id="edge29" class="edge"><title>&#45;7&#45;&gt;11523</title>
<path fill="none" stroke="red" stroke-width="0.107182" d="M174.848,-474.133C172.758,-450.584 166.653,-381.776 162.824,-338.635"/>
<polygon fill="red" stroke="red" stroke-width="0.107182" points="166.298,-338.179 161.928,-328.527 159.325,-338.798 166.298,-338.179"/>
</g>
<!-- &#45;7&#45;&gt;12424 -->
<g id="edge26" class="edge"><title>&#45;7&#45;&gt;12424</title>
<path fill="none" stroke="red" stroke-width="0.225102" d="M170.409,-474.121C163.4,-462.962 150.483,-442.398 139.425,-424.794"/>
<polygon fill="red" stroke="red" stroke-width="0.225102" points="142.136,-422.529 133.853,-415.923 136.208,-426.252 142.136,-422.529"/>
</g>
<!-- &#45;8 -->
<g id="node8" class="node"><title>&#45;8</title>
<polygon fill="lightgray" stroke="black" points="507.577,-310.04 483.577,-310.04 483.577,-292.04 507.577,-292.04 507.577,-310.04"/>
<text text-anchor="middle" x="495.577" y="-298.84" font-family="Times New Roman,serif" font-size="9.00">&#45;8</text>
</g>
<!-- 12068 -->
<g id="node18" class="node"><title>12068</title>
<ellipse fill="white" stroke="black" cx="495.577" cy="-209.886" rx="27.6545" ry="27.6545"/>
<text text-anchor="middle" x="495.577" y="-207.686" font-family="Times New Roman,serif" font-size="9.00">12068</text>
</g>
<!-- &#45;8&#45;&gt;12068 -->
<g id="edge4" class="edge"><title>&#45;8&#45;&gt;12068</title>
<path fill="none" stroke="red" stroke-width="0.203168" d="M495.577,-291.813C495.577,-281.841 495.577,-264.36 495.577,-248.191"/>
<polygon fill="red" stroke="red" stroke-width="0.203168" points="499.077,-247.847 495.577,-237.847 492.077,-247.847 499.077,-247.847"/>
</g>
<!-- &#45;9 -->
<g id="node9" class="node"><title>&#45;9</title>
<polygon fill="lightgray" stroke="black" points="393.577,-492.349 369.577,-492.349 369.577,-474.349 393.577,-474.349 393.577,-492.349"/>
<text text-anchor="middle" x="381.577" y="-481.149" font-family="Times New Roman,serif" font-size="9.00">&#45;9</text>
</g>
<!-- 12439 -->
<g id="node26" class="node"><title>12439</title>
<ellipse fill="white" stroke="black" cx="383.577" cy="-392.194" rx="27.6545" ry="27.6545"/>
<text text-anchor="middle" x="383.577" y="-389.994" font-family="Times New Roman,serif" font-size="9.00">12439</text>
</g>
<!-- &#45;9&#45;&gt;12439 -->
<g id="edge23" class="edge"><title>&#45;9&#45;&gt;12439</title>
<path fill="none" stroke="red" stroke-width="0.322344" d="M381.762,-474.121C381.985,-464.149 382.378,-446.668 382.74,-430.499"/>
<polygon fill="red" stroke="red" stroke-width="0.322344" points="386.247,-430.231 382.972,-420.155 379.249,-430.074 386.247,-430.231"/>
</g>
<!-- &#45;10 -->
<g id="node10" class="node"><title>&#45;10</title>
<polygon fill="lightgray" stroke="black" points="273.077,-310.04 244.077,-310.04 244.077,-292.04 273.077,-292.04 273.077,-310.04"/>
<text text-anchor="middle" x="258.577" y="-298.84" font-family="Times New Roman,serif" font-size="9.00">&#45;10</text>
</g>
<!-- &#45;10&#45;&gt;0 -->
<g id="edge11" class="edge"><title>&#45;10&#45;&gt;0</title>
<path fill="none" stroke="red" stroke-width="0.509121" d="M256.547,-291.813C253.352,-278.864 247.032,-253.255 242.354,-234.297"/>
<polygon fill="red" stroke="red" stroke-width="0.509121" points="245.748,-233.442 239.954,-224.572 238.952,-235.119 245.748,-233.442"/>
</g>
<!-- &#45;11 -->
<g id="node11" class="node"><title>&#45;11</title>
<polygon fill="lightgray" stroke="black" points="314.077,-492.349 285.077,-492.349 285.077,-474.349 314.077,-474.349 314.077,-492.349"/>
<text text-anchor="middle" x="299.577" y="-481.149" font-family="Times New Roman,serif" font-size="9.00">&#45;11</text>
</g>
<!-- 12934 -->
<g id="node20" class="node"><title>12934</title>
<ellipse fill="white" stroke="black" cx="271.577" cy="-392.194" rx="27.6545" ry="27.6545"/>
<text text-anchor="middle" x="271.577" y="-389.994" font-family="Times New Roman,serif" font-size="9.00">12934</text>
</g>
<!-- &#45;11&#45;&gt;12934 -->
<g id="edge27" class="edge"><title>&#45;11&#45;&gt;12934</title>
<path fill="none" stroke="green" stroke-width="0.392925" d="M296.993,-474.121C293.711,-463.671 287.839,-444.974 282.566,-428.183"/>
<polygon fill="green" stroke="green" stroke-width="0.392925" points="285.89,-427.085 279.554,-418.593 279.211,-429.183 285.89,-427.085"/>
</g>
<!-- 12584 -->
<g id="node22" class="node"><title>12584</title>
<ellipse fill="white" stroke="black" cx="327.577" cy="-301.04" rx="27.6545" ry="27.6545"/>
<text text-anchor="middle" x="327.577" y="-298.84" font-family="Times New Roman,serif" font-size="9.00">12584</text>
</g>
<!-- &#45;11&#45;&gt;12584 -->
<g id="edge9" class="edge"><title>&#45;11&#45;&gt;12584</title>
<path fill="none" stroke="red" stroke-width="0.470596" stroke-dasharray="1,5" d="M300.853,-474.133C304.51,-450.584 315.195,-381.776 321.894,-338.635"/>
<polygon fill="red" stroke="red" stroke-width="0.470596" points="325.388,-338.946 323.464,-328.527 318.471,-337.872 325.388,-338.946"/>
</g>
<!-- &#45;12 -->
<g id="node12" class="node"><title>&#45;12</title>
<polygon fill="lightgray" stroke="black" points="431.077,-564.926 402.077,-564.926 402.077,-546.926 431.077,-546.926 431.077,-564.926"/>
<text text-anchor="middle" x="416.577" y="-553.726" font-family="Times New Roman,serif" font-size="9.00">&#45;12</text>
</g>
<!-- &#45;12&#45;&gt;11253 -->
<g id="edge8" class="edge"><title>&#45;12&#45;&gt;11253</title>
<path fill="none" stroke="green" stroke-width="0.584388" d="M419.216,-546.83C421.433,-540.025 424.766,-529.797 428.097,-519.577"/>
<polygon fill="green" stroke="green" stroke-width="0.584388" points="431.483,-520.484 431.253,-509.891 424.827,-518.315 431.483,-520.484"/>
</g>
<!-- &#45;13 -->
<g id="node13" class="node"><title>&#45;13</title>
<polygon fill="lightgray" stroke="black" points="605.077,-564.926 576.077,-564.926 576.077,-546.926 605.077,-546.926 605.077,-564.926"/>
<text text-anchor="middle" x="590.577" y="-553.726" font-family="Times New Roman,serif" font-size="9.00">&#45;13</text>
</g>
<!-- 2 -->
<g id="node16" class="node"><title>2</title>
<ellipse fill="lightblue" stroke="black" cx="501.577" cy="-118.731" rx="14.7" ry="14.7"/>
<text text-anchor="middle" x="501.577" y="-116.531" font-family="Times New Roman,serif" font-size="9.00">2</text>
</g>
<!-- 11523&#45;&gt;0 -->
<g id="edge7" class="edge"><title>11523&#45;&gt;0</title>
<path fill="none" stroke="red" stroke-width="0.217615" d="M177.436,-279.362C190.36,-264.398 207.69,-244.333 220.247,-229.794"/>
<polygon fill="red" stroke="red" stroke-width="0.217615" points="223.132,-231.808 227.02,-221.952 217.834,-227.233 223.132,-231.808"/>
</g>
<!-- 12068&#45;&gt;2 -->
<g id="edge3" class="edge"><title>12068&#45;&gt;2</title>
<path fill="none" stroke="red" stroke-width="0.398569" d="M497.377,-182.137C498.197,-169.963 499.159,-155.666 499.955,-143.829"/>
<polygon fill="red" stroke="red" stroke-width="0.398569" points="503.452,-143.995 500.632,-133.783 496.468,-143.525 503.452,-143.995"/>
</g>
<!-- 12076 -->
<g id="node24" class="node"><title>12076</title>
<ellipse fill="white" stroke="black" cx="398.577" cy="-118.731" rx="27.6545" ry="27.6545"/>
<text text-anchor="middle" x="398.577" y="-116.531" font-family="Times New Roman,serif" font-size="9.00">12076</text>
</g>
<!-- 12068&#45;&gt;12076 -->
<g id="edge22" class="edge"><title>12068&#45;&gt;12076</title>
<path fill="none" stroke="green" stroke-width="0.25546" d="M475.479,-190.413C461.172,-177.264 441.775,-159.435 426.041,-144.974"/>
<polygon fill="green" stroke="green" stroke-width="0.25546" points="428.381,-142.371 418.65,-138.181 423.644,-147.525 428.381,-142.371"/>
</g>
<!-- 12934&#45;&gt;12584 -->
<g id="edge28" class="edge"><title>12934&#45;&gt;12584</title>
<path fill="none" stroke="red" stroke-width="0.514286" d="M285.999,-368.235C292.596,-357.732 300.52,-345.116 307.673,-333.728"/>
<polygon fill="red" stroke="red" stroke-width="0.514286" points="310.849,-335.252 313.205,-324.922 304.922,-331.528 310.849,-335.252"/>
</g>
<!-- 12424&#45;&gt;11523 -->
<g id="edge16" class="edge"><title>12424&#45;&gt;11523</title>
<path fill="none" stroke="red" stroke-width="0.238982" d="M130.507,-366.833C134.829,-357.201 139.866,-345.972 144.523,-335.594"/>
<polygon fill="red" stroke="red" stroke-width="0.238982" points="147.76,-336.929 148.66,-326.373 141.373,-334.064 147.76,-336.929"/>
</g>
<!-- 12584&#45;&gt;0 -->
<g id="edge17" class="edge"><title>12584&#45;&gt;0</title>
<path fill="none" stroke="green" stroke-width="0.338707" d="M308.278,-281.133C292.284,-265.463 269.738,-243.374 254.22,-228.17"/>
<polygon fill="green" stroke="green" stroke-width="0.338707" points="256.41,-225.416 246.817,-220.918 251.511,-230.416 256.41,-225.416"/>
</g>
<!-- 12779 -->
<g id="node23" class="node"><title>12779</title>
<ellipse fill="white" stroke="black" cx="383.577" cy="-209.886" rx="27.6545" ry="27.6545"/>
<text text-anchor="middle" x="383.577" y="-207.686" font-family="Times New Roman,serif" font-size="9.00">12779</text>
</g>
<!-- 12584&#45;&gt;12779 -->
<g id="edge19" class="edge"><title>12584&#45;&gt;12779</title>
<path fill="none" stroke="red" stroke-width="0.380878" d="M341.999,-277.081C348.596,-266.577 356.52,-253.961 363.673,-242.573"/>
<polygon fill="red" stroke="red" stroke-width="0.380878" points="366.849,-244.097 369.205,-233.767 360.922,-240.374 366.849,-244.097"/>
</g>
<!-- 12584&#45;&gt;12076 -->
<g id="edge10" class="edge"><title>12584&#45;&gt;12076</title>
<path fill="none" stroke="red" stroke-width="0.311595" stroke-dasharray="1,5" d="M327.914,-273.166C329.133,-248.52 333.296,-211.523 346.577,-182.309 352.633,-168.987 362.303,-156.2 371.67,-145.696"/>
<polygon fill="red" stroke="red" stroke-width="0.311595" points="374.455,-147.841 378.709,-138.138 369.333,-143.07 374.455,-147.841"/>
</g>
<!-- 12779&#45;&gt;12076 -->
<g id="edge20" class="edge"><title>12779&#45;&gt;12076</title>
<path fill="none" stroke="green" stroke-width="0.275231" stroke-dasharray="1,5" d="M387.997,-182.619C389.388,-174.349 390.95,-165.062 392.439,-156.215"/>
<polygon fill="green" stroke="green" stroke-width="0.275231" points="395.93,-156.561 394.138,-146.119 389.027,-155.4 395.93,-156.561"/>
</g>
<!-- 12076&#45;&gt;12699 -->
<g id="edge14" class="edge"><title>12076&#45;&gt;12699</title>
<path fill="none" stroke="red" stroke-width="0.389467" d="M413.213,-95.2341C420.219,-84.4642 428.722,-71.394 436.336,-59.6902"/>
<polygon fill="red" stroke="red" stroke-width="0.389467" points="439.427,-61.3583 441.946,-51.0674 433.559,-57.5411 439.427,-61.3583"/>
</g>
<!-- 11253&#45;&gt;12076 -->
<g id="edge24" class="edge"><title>11253&#45;&gt;12076</title>
<path fill="none" stroke="green" stroke-width="0.416135" d="M440.325,-455.537C441.264,-402.678 440.759,-281.535 420.577,-182.309 418.672,-172.944 415.691,-163.075 412.531,-154.013"/>
<polygon fill="green" stroke="green" stroke-width="0.416135" points="415.795,-152.748 409.074,-144.558 409.221,-155.152 415.795,-152.748"/>
</g>
<!-- 11253&#45;&gt;12439 -->
<g id="edge21" class="edge"><title>11253&#45;&gt;12439</title>
<path fill="none" stroke="green" stroke-width="0.229282" d="M425.156,-459.389C418.558,-448.886 410.634,-436.27 403.481,-424.882"/>
<polygon fill="green" stroke="green" stroke-width="0.229282" points="406.233,-422.683 397.95,-416.076 400.305,-426.406 406.233,-422.683"/>
</g>
<!-- 11253&#45;&gt;12699 -->
<g id="edge18" class="edge"><title>11253&#45;&gt;12699</title>
<path fill="none" stroke="green" stroke-width="0.255696" d="M460.12,-464.652C492.453,-434.708 551.577,-370.583 551.577,-302.04 551.577,-302.04 551.577,-302.04 551.577,-208.886 551.577,-155.3 552.47,-137.503 525.577,-91.1543 516.167,-74.9373 501.129,-60.5744 487.489,-49.7124"/>
<polygon fill="green" stroke="green" stroke-width="0.255696" points="489.313,-46.7015 479.241,-43.4163 485.066,-52.2659 489.313,-46.7015"/>
</g>
<!-- 12439&#45;&gt;12584 -->
<g id="edge12" class="edge"><title>12439&#45;&gt;12584</title>
<path fill="none" stroke="red" stroke-width="0.267903" stroke-dasharray="1,5" d="M369.156,-368.235C362.558,-357.732 354.634,-345.116 347.481,-333.728"/>
<polygon fill="red" stroke="red" stroke-width="0.267903" points="350.233,-331.528 341.95,-324.922 344.305,-335.252 350.233,-331.528"/>
</g>
</g>
</svg>
