<?xml version="1.0" encoding="UTF-8" standalone="no"?>
<!DOCTYPE svg PUBLIC "-//W3C//DTD SVG 1.1//EN"
 "http://www.w3.org/Graphics/SVG/1.1/DTD/svg11.dtd">
<!-- Generated by graphviz version 2.38.0 (20140413.2041)
 -->
<!-- Title: %3 Pages: 1 -->
<svg width="521pt" height="519pt"
 viewBox="0.00 0.00 520.50 519.19" xmlns="http://www.w3.org/2000/svg" xmlns:xlink="http://www.w3.org/1999/xlink">
<g id="graph0" class="graph" transform="scale(1 1) rotate(0) translate(4 515.186)">
<title>%3</title>
<polygon fill="white" stroke="none" points="-4,4 -4,-515.186 516.5,-515.186 516.5,4 -4,4"/>
<!-- &#45;1 -->
<g id="node1" class="node"><title>&#45;1</title>
<polygon fill="lightgray" stroke="black" points="351,-511.186 327,-511.186 327,-493.186 351,-493.186 351,-511.186"/>
<text text-anchor="middle" x="339" y="-499.986" font-family="Times New Roman,serif" font-size="9.00">&#45;1</text>
</g>
<!-- 1 -->
<g id="node15" class="node"><title>1</title>
<ellipse fill="lightblue" stroke="black" cx="159" cy="-442.337" rx="14.7" ry="14.7"/>
<text text-anchor="middle" x="159" y="-440.137" font-family="Times New Roman,serif" font-size="9.00">1</text>
</g>
<!-- &#45;1&#45;&gt;1 -->
<g id="edge12" class="edge"><title>&#45;1&#45;&gt;1</title>
<path fill="none" stroke="green" stroke-width="0.435387" d="M326.91,-497.3C297.514,-487.853 221.856,-463.537 182.926,-451.026"/>
<polygon fill="green" stroke="green" stroke-width="0.435387" points="183.58,-447.56 172.989,-447.832 181.438,-454.224 183.58,-447.56"/>
</g>
<!-- 1516 -->
<g id="node19" class="node"><title>1516</title>
<ellipse fill="white" stroke="black" cx="283" cy="-110.246" rx="25" ry="25"/>
<text text-anchor="middle" x="283" y="-108.046" font-family="Times New Roman,serif" font-size="9.00">1516</text>
</g>
<!-- &#45;1&#45;&gt;1516 -->
<g id="edge25" class="edge"><title>&#45;1&#45;&gt;1516</title>
<path fill="none" stroke="green" stroke-width="0.252726" d="M340.211,-492.954C342.824,-474.727 348.924,-429.556 351,-391.487 352.198,-369.521 354.142,-363.763 351,-341.99 340.46,-268.937 312.064,-186.777 295.489,-142.902"/>
<polygon fill="green" stroke="green" stroke-width="0.252726" points="298.685,-141.46 291.845,-133.368 292.146,-143.959 298.685,-141.46"/>
</g>
<!-- &#45;2 -->
<g id="node2" class="node"><title>&#45;2</title>
<polygon fill="lightgray" stroke="black" points="423,-290.241 399,-290.241 399,-272.241 423,-272.241 423,-290.241"/>
<text text-anchor="middle" x="411" y="-279.041" font-family="Times New Roman,serif" font-size="9.00">&#45;2</text>
</g>
<!-- 234 -->
<g id="node18" class="node"><title>234</title>
<ellipse fill="white" stroke="black" cx="382" cy="-195.744" rx="21.4286" ry="21.4286"/>
<text text-anchor="middle" x="382" y="-193.544" font-family="Times New Roman,serif" font-size="9.00">234</text>
</g>
<!-- &#45;2&#45;&gt;234 -->
<g id="edge1" class="edge"><title>&#45;2&#45;&gt;234</title>
<path fill="none" stroke="red" stroke-width="0.586522" stroke-dasharray="1,5" d="M408.219,-272.235C404.533,-261.621 397.828,-242.316 392.122,-225.886"/>
<polygon fill="red" stroke="red" stroke-width="0.586522" points="395.321,-224.429 388.733,-216.131 388.708,-226.726 395.321,-224.429"/>
</g>
<!-- &#45;3 -->
<g id="node3" class="node"><title>&#45;3</title>
<polygon fill="lightgray" stroke="black" points="143,-375.739 119,-375.739 119,-357.739 143,-357.739 143,-375.739"/>
<text text-anchor="middle" x="131" y="-364.539" font-family="Times New Roman,serif" font-size="9.00">&#45;3</text>
</g>
<!-- 1107 -->
<g id="node22" class="node"><title>1107</title>
<ellipse fill="white" stroke="black" cx="280" cy="-281.241" rx="25" ry="25"/>
<text text-anchor="middle" x="280" y="-279.041" font-family="Times New Roman,serif" font-size="9.00">1107</text>
</g>
<!-- &#45;3&#45;&gt;1107 -->
<g id="edge7" class="edge"><title>&#45;3&#45;&gt;1107</title>
<path fill="none" stroke="red" stroke-width="0.240997" stroke-dasharray="1,5" d="M136.912,-357.482C140.779,-352.517 146.18,-346.339 152,-341.99 181.394,-320.025 220.154,-303.325 247.29,-293.239"/>
<polygon fill="red" stroke="red" stroke-width="0.240997" points="248.511,-296.52 256.723,-289.825 246.129,-289.938 248.511,-296.52"/>
</g>
<!-- &#45;4 -->
<g id="node4" class="node"><title>&#45;4</title>
<polygon fill="lightgray" stroke="black" points="465,-290.241 441,-290.241 441,-272.241 465,-272.241 465,-290.241"/>
<text text-anchor="middle" x="453" y="-279.041" font-family="Times New Roman,serif" font-size="9.00">&#45;4</text>
</g>
<!-- &#45;4&#45;&gt;234 -->
<g id="edge2" class="edge"><title>&#45;4&#45;&gt;234</title>
<path fill="none" stroke="red" stroke-width="0.195688" stroke-dasharray="1,5" d="M446.192,-272.235C436.17,-260.449 417.036,-237.946 402.254,-220.563"/>
<polygon fill="red" stroke="red" stroke-width="0.195688" points="404.551,-217.861 395.407,-212.51 399.218,-222.396 404.551,-217.861"/>
</g>
<!-- &#45;5 -->
<g id="node5" class="node"><title>&#45;5</title>
<polygon fill="lightgray" stroke="black" points="171,-511.186 147,-511.186 147,-493.186 171,-493.186 171,-511.186"/>
<text text-anchor="middle" x="159" y="-499.986" font-family="Times New Roman,serif" font-size="9.00">&#45;5</text>
</g>
<!-- &#45;5&#45;&gt;1 -->
<g id="edge18" class="edge"><title>&#45;5&#45;&gt;1</title>
<path fill="none" stroke="red" stroke-width="0.715559" d="M159,-493.142C159,-486.537 159,-476.822 159,-467.721"/>
<polygon fill="red" stroke="red" stroke-width="0.715559" points="162.5,-467.544 159,-457.544 155.5,-467.544 162.5,-467.544"/>
</g>
<!-- &#45;6 -->
<g id="node6" class="node"><title>&#45;6</title>
<polygon fill="lightgray" stroke="black" points="393,-511.186 369,-511.186 369,-493.186 393,-493.186 393,-511.186"/>
<text text-anchor="middle" x="381" y="-499.986" font-family="Times New Roman,serif" font-size="9.00">&#45;6</text>
</g>
<!-- &#45;7 -->
<g id="node7" class="node"><title>&#45;7</title>
<polygon fill="lightgray" stroke="black" points="185,-375.739 161,-375.739 161,-357.739 185,-357.739 185,-375.739"/>
<text text-anchor="middle" x="173" y="-364.539" font-family="Times New Roman,serif" font-size="9.00">&#45;7</text>
</g>
<!-- &#45;7&#45;&gt;1107 -->
<g id="edge20" class="edge"><title>&#45;7&#45;&gt;1107</title>
<path fill="none" stroke="red" stroke-width="0.193677" d="M179.552,-357.376C183.486,-352.609 188.736,-346.672 194,-341.99 211.583,-326.35 233.371,-311.251 250.617,-300.145"/>
<polygon fill="red" stroke="red" stroke-width="0.193677" points="252.604,-303.029 259.175,-294.719 248.855,-297.117 252.604,-303.029"/>
</g>
<!-- &#45;8 -->
<g id="node8" class="node"><title>&#45;8</title>
<polygon fill="lightgray" stroke="black" points="295,-375.739 271,-375.739 271,-357.739 295,-357.739 295,-375.739"/>
<text text-anchor="middle" x="283" y="-364.539" font-family="Times New Roman,serif" font-size="9.00">&#45;8</text>
</g>
<!-- &#45;8&#45;&gt;1107 -->
<g id="edge14" class="edge"><title>&#45;8&#45;&gt;1107</title>
<path fill="none" stroke="red" stroke-width="0.601159" d="M282.712,-357.733C282.369,-348.181 281.773,-331.592 281.227,-316.393"/>
<polygon fill="red" stroke="red" stroke-width="0.601159" points="284.718,-316.064 280.861,-306.196 277.722,-316.315 284.718,-316.064"/>
</g>
<!-- &#45;9 -->
<g id="node9" class="node"><title>&#45;9</title>
<polygon fill="lightgray" stroke="black" points="435,-511.186 411,-511.186 411,-493.186 435,-493.186 435,-511.186"/>
<text text-anchor="middle" x="423" y="-499.986" font-family="Times New Roman,serif" font-size="9.00">&#45;9</text>
</g>
<!-- &#45;10 -->
<g id="node10" class="node"><title>&#45;10</title>
<polygon fill="lightgray" stroke="black" points="450.5,-204.744 421.5,-204.744 421.5,-186.744 450.5,-186.744 450.5,-204.744"/>
<text text-anchor="middle" x="436" y="-193.544" font-family="Times New Roman,serif" font-size="9.00">&#45;10</text>
</g>
<!-- 0 -->
<g id="node14" class="node"><title>0</title>
<ellipse fill="lightblue" stroke="black" cx="435" cy="-110.246" rx="14.7" ry="14.7"/>
<text text-anchor="middle" x="435" y="-108.046" font-family="Times New Roman,serif" font-size="9.00">0</text>
</g>
<!-- &#45;10&#45;&gt;0 -->
<g id="edge11" class="edge"><title>&#45;10&#45;&gt;0</title>
<path fill="none" stroke="green" stroke-width="1.30433" stroke-dasharray="1,5" d="M435.904,-186.738C435.763,-174.974 435.495,-152.536 435.286,-135.167"/>
<polygon fill="green" stroke="green" stroke-width="1.30433" points="438.786,-135.106 435.166,-125.148 431.787,-135.19 438.786,-135.106"/>
</g>
<!-- 2 -->
<g id="node16" class="node"><title>2</title>
<ellipse fill="lightblue" stroke="black" cx="341" cy="-110.246" rx="14.7" ry="14.7"/>
<text text-anchor="middle" x="341" y="-108.046" font-family="Times New Roman,serif" font-size="9.00">2</text>
</g>
<!-- &#45;10&#45;&gt;2 -->
<g id="edge6" class="edge"><title>&#45;10&#45;&gt;2</title>
<path fill="none" stroke="green" stroke-width="0.97555" d="M428.261,-186.545C423.681,-181.833 417.681,-175.896 412,-170.995 391.809,-153.576 384.005,-152.628 364,-134.995 361.966,-133.202 359.898,-131.261 357.88,-129.289"/>
<polygon fill="green" stroke="green" stroke-width="0.97555" points="360.01,-126.462 350.511,-121.771 355.011,-131.362 360.01,-126.462"/>
</g>
<!-- 1248 -->
<g id="node17" class="node"><title>1248</title>
<ellipse fill="white" stroke="black" cx="335" cy="-24.7487" rx="25" ry="25"/>
<text text-anchor="middle" x="335" y="-22.5487" font-family="Times New Roman,serif" font-size="9.00">1248</text>
</g>
<!-- &#45;10&#45;&gt;1248 -->
<g id="edge10" class="edge"><title>&#45;10&#45;&gt;1248</title>
<path fill="none" stroke="green" stroke-width="0.230983" d="M441.418,-186.637C453.466,-167.503 479.826,-118.651 459,-85.4975 439.499,-54.4543 398.84,-39.1604 369.384,-31.888"/>
<polygon fill="green" stroke="green" stroke-width="0.230983" points="370.013,-28.4417 359.486,-29.6375 368.461,-35.2675 370.013,-28.4417"/>
</g>
<!-- &#45;11 -->
<g id="node11" class="node"><title>&#45;11</title>
<polygon fill="lightgray" stroke="black" points="512.5,-290.241 483.5,-290.241 483.5,-272.241 512.5,-272.241 512.5,-290.241"/>
<text text-anchor="middle" x="498" y="-279.041" font-family="Times New Roman,serif" font-size="9.00">&#45;11</text>
</g>
<!-- &#45;11&#45;&gt;234 -->
<g id="edge3" class="edge"><title>&#45;11&#45;&gt;234</title>
<path fill="none" stroke="red" stroke-width="0.204303" stroke-dasharray="1,5" d="M490.457,-271.802C485.943,-267.01 479.943,-261.073 474,-256.492 449.066,-237.275 439.098,-238.097 413,-220.492 410.836,-219.033 408.622,-217.475 406.421,-215.882"/>
<polygon fill="red" stroke="red" stroke-width="0.204303" points="408.244,-212.875 398.139,-209.692 404.054,-218.482 408.244,-212.875"/>
</g>
<!-- &#45;12 -->
<g id="node12" class="node"><title>&#45;12</title>
<polygon fill="lightgray" stroke="black" points="342.5,-375.739 313.5,-375.739 313.5,-357.739 342.5,-357.739 342.5,-375.739"/>
<text text-anchor="middle" x="328" y="-364.539" font-family="Times New Roman,serif" font-size="9.00">&#45;12</text>
</g>
<!-- &#45;12&#45;&gt;1107 -->
<g id="edge9" class="edge"><title>&#45;12&#45;&gt;1107</title>
<path fill="none" stroke="red" stroke-width="0.31254" d="M323.398,-357.733C317.339,-347.194 306.355,-328.087 296.954,-311.734"/>
<polygon fill="red" stroke="red" stroke-width="0.31254" points="299.954,-309.929 291.936,-303.003 293.885,-313.417 299.954,-309.929"/>
</g>
<!-- &#45;13 -->
<g id="node13" class="node"><title>&#45;13</title>
<polygon fill="lightgray" stroke="black" points="402.5,-119.246 373.5,-119.246 373.5,-101.246 402.5,-101.246 402.5,-119.246"/>
<text text-anchor="middle" x="388" y="-108.046" font-family="Times New Roman,serif" font-size="9.00">&#45;13</text>
</g>
<!-- &#45;13&#45;&gt;1248 -->
<g id="edge26" class="edge"><title>&#45;13&#45;&gt;1248</title>
<path fill="none" stroke="red" stroke-width="0.414229" d="M382.918,-101.24C376.185,-90.6326 363.942,-71.3446 353.517,-54.9208"/>
<polygon fill="red" stroke="red" stroke-width="0.414229" points="356.273,-52.7316 347.959,-46.1645 350.363,-56.483 356.273,-52.7316"/>
</g>
<!-- 1&#45;&gt;1248 -->
<g id="edge15" class="edge"><title>1&#45;&gt;1248</title>
<path fill="none" stroke="green" stroke-width="0.244677" stroke-dasharray="1,5" d="M144.516,-437.868C122.265,-431.877 79.4739,-417.643 53,-391.487 14.6099,-353.559 0,-336.207 0,-282.241 0,-282.241 0,-282.241 0,-194.744 0,-61.3924 214.215,-33.2477 300.049,-27.3228"/>
<polygon fill="green" stroke="green" stroke-width="0.244677" points="300.334,-30.8119 310.094,-26.6914 299.894,-23.8257 300.334,-30.8119"/>
</g>
<!-- 1&#45;&gt;234 -->
<g id="edge5" class="edge"><title>1&#45;&gt;234</title>
<path fill="none" stroke="red" stroke-width="0.434791" stroke-dasharray="1,5" d="M173.884,-439.57C214.683,-434.417 326.863,-418.065 351,-391.487 392.164,-346.162 390.942,-269.121 386.467,-226.799"/>
<polygon fill="red" stroke="red" stroke-width="0.434791" points="389.938,-226.345 385.283,-216.827 382.987,-227.17 389.938,-226.345"/>
</g>
<!-- 1&#45;&gt;1516 -->
<g id="edge16" class="edge"><title>1&#45;&gt;1516</title>
<path fill="none" stroke="green" stroke-width="0.157717" stroke-dasharray="1,5" d="M147.044,-433.469C135.09,-424.811 117.445,-409.682 110,-391.487 101.669,-371.127 103.045,-362.86 110,-341.99 139.37,-253.857 217.043,-172.268 257.574,-134.033"/>
<polygon fill="green" stroke="green" stroke-width="0.157717" points="259.99,-136.566 264.925,-127.191 255.22,-131.442 259.99,-136.566"/>
</g>
<!-- 1612 -->
<g id="node20" class="node"><title>1612</title>
<ellipse fill="white" stroke="black" cx="53" cy="-195.744" rx="25" ry="25"/>
<text text-anchor="middle" x="53" y="-193.544" font-family="Times New Roman,serif" font-size="9.00">1612</text>
</g>
<!-- 1&#45;&gt;1612 -->
<g id="edge22" class="edge"><title>1&#45;&gt;1612</title>
<path fill="none" stroke="red" stroke-width="0.244197" d="M144.965,-437.101C126.076,-430.605 93.0023,-416.257 77,-391.487 45.3697,-342.528 45.2999,-272.017 48.7321,-230.636"/>
<polygon fill="red" stroke="red" stroke-width="0.244197" points="52.2312,-230.81 49.6896,-220.525 45.2624,-230.151 52.2312,-230.81"/>
</g>
<!-- 1454 -->
<g id="node21" class="node"><title>1454</title>
<ellipse fill="white" stroke="black" cx="228" cy="-366.739" rx="25" ry="25"/>
<text text-anchor="middle" x="228" y="-364.539" font-family="Times New Roman,serif" font-size="9.00">1454</text>
</g>
<!-- 1&#45;&gt;1454 -->
<g id="edge13" class="edge"><title>1&#45;&gt;1454</title>
<path fill="none" stroke="green" stroke-width="0.123429" d="M168.886,-430.792C178.169,-420.89 192.412,-405.698 204.592,-392.707"/>
<polygon fill="green" stroke="green" stroke-width="0.123429" points="207.185,-395.058 211.471,-385.369 202.079,-390.27 207.185,-395.058"/>
</g>
<!-- 234&#45;&gt;2 -->
<g id="edge4" class="edge"><title>234&#45;&gt;2</title>
<path fill="none" stroke="red" stroke-width="0.229543" d="M372.901,-176.213C366.598,-163.377 358.187,-146.249 351.584,-132.802"/>
<polygon fill="red" stroke="red" stroke-width="0.229543" points="354.701,-131.208 347.152,-123.775 348.418,-134.294 354.701,-131.208"/>
</g>
<!-- 234&#45;&gt;1516 -->
<g id="edge19" class="edge"><title>234&#45;&gt;1516</title>
<path fill="none" stroke="red" stroke-width="0.204764" stroke-dasharray="1,5" d="M366.094,-181.328C350.831,-168.456 327.501,-148.779 309.443,-133.548"/>
<polygon fill="red" stroke="red" stroke-width="0.204764" points="311.466,-130.676 301.565,-126.904 306.953,-136.027 311.466,-130.676"/>
</g>
<!-- 1516&#45;&gt;1248 -->
<g id="edge17" class="edge"><title>1516&#45;&gt;1248</title>
<path fill="none" stroke="red" stroke-width="0.455596" stroke-dasharray="1,5" d="M295.854,-88.6064C302.214,-78.3939 309.998,-65.8946 316.945,-54.7396"/>
<polygon fill="red" stroke="red" stroke-width="0.455596" points="319.978,-56.4899 322.294,-46.1511 314.037,-52.7894 319.978,-56.4899"/>
</g>
<!-- 1612&#45;&gt;1516 -->
<g id="edge23" class="edge"><title>1612&#45;&gt;1516</title>
<path fill="none" stroke="green" stroke-width="0.206653" d="M73.1321,-181.201C79.0503,-177.577 85.6447,-173.872 92,-170.995 145.027,-146.991 210.448,-128.816 249.332,-119.121"/>
<polygon fill="green" stroke="green" stroke-width="0.206653" points="250.214,-122.509 259.093,-116.727 248.547,-115.71 250.214,-122.509"/>
</g>
<!-- 1454&#45;&gt;1107 -->
<g id="edge24" class="edge"><title>1454&#45;&gt;1107</title>
<path fill="none" stroke="red" stroke-width="0.227084" d="M240.854,-345.099C247.214,-334.886 254.998,-322.387 261.945,-311.232"/>
<polygon fill="red" stroke="red" stroke-width="0.227084" points="264.978,-312.982 267.294,-302.644 259.037,-309.282 264.978,-312.982"/>
</g>
<!-- 1107&#45;&gt;234 -->
<g id="edge8" class="edge"><title>1107&#45;&gt;234</title>
<path fill="none" stroke="red" stroke-width="0.147022" d="M298.708,-264.926C315.366,-251.29 339.832,-231.262 357.942,-216.438"/>
<polygon fill="red" stroke="red" stroke-width="0.147022" points="360.243,-219.077 365.764,-210.035 355.809,-213.661 360.243,-219.077"/>
</g>
<!-- 1107&#45;&gt;1516 -->
<g id="edge21" class="edge"><title>1107&#45;&gt;1516</title>
<path fill="none" stroke="red" stroke-width="0.513043" d="M280.423,-256.387C280.938,-227.406 281.809,-178.31 282.395,-145.343"/>
<polygon fill="red" stroke="red" stroke-width="0.513043" points="285.896,-145.313 282.574,-135.252 278.897,-145.189 285.896,-145.313"/>
</g>
</g>
</svg>
